<?xml version="1.0" encoding="UTF-8" standalone="no"?>
<!-- Created with Inkscape (http://www.inkscape.org/) -->
<svg
   xmlns:svg="http://www.w3.org/2000/svg"
   xmlns="http://www.w3.org/2000/svg"
   version="1.0"
   width="741.6123"
   height="741.38641"
   id="svg2"
   style="display:inline">
  <defs
     id="defs4" />
  <g
     id="layer4"
     style="opacity:1;display:inline">
    <path
       d="M 495.5,652.38641 C 495.5,652.38641 514,704.88641 521,703.38641 C 528,701.88641 531.5,666.88641 532,668.88641 C 532.5,670.88641 562.5,691.88641 565.5,688.88641 C 568.5,685.88641 545,654.38641 545,654.38641 C 545,654.38641 585,677.88641 589,674.88641 C 593,671.88641 548.5,630.88641 551,627.88641 C 553.5,624.88641 603.5,637.38641 610,641.88641 C 616.5,646.38641 714.5,728.88641 720.5,723.88641 C 726.5,718.88641 597,600.88641 600,597.38641 C 603,593.88641 733.5,609.38641 736,602.38641 C 738.5,595.38641 625,551.38641 629.5,544.88641 C 634,538.38641 744.5,538.88641 745,531.38641 C 745.5,523.88641 686.5,495.88641 686.5,495.88641 C 686.5,495.88641 726.5,479.88641 726.5,474.38641 C 726.5,468.88641 721.5,464.38641 711.5,462.38641 C 701.5,460.38641 635,448.38641 635,448.38641 C 635,448.38641 721.5,428.88641 725.5,424.38641 C 729.5,419.88641 715,413.38641 705.5,412.38641 C 696,411.38641 599,396.88641 599,396.88641 L 495.5,652.38641 z"
       id="path3368"
       style="opacity:1;fill:#000000;fill-opacity:1;fill-rule:evenodd;stroke:none;stroke-width:1px;stroke-linecap:butt;stroke-linejoin:miter;marker:none;marker-start:none;marker-mid:none;marker-end:none;stroke-miterlimit:4;stroke-dasharray:none;stroke-dashoffset:0;stroke-opacity:1;visibility:visible;display:inline;overflow:visible;enable-background:accumulate" />
    <path
       d="M 588,404.38641 L 712,421.38641 C 712,421.38641 629,440.38641 614,452.38641 C 636,451.38641 720,472.38641 720,472.38641 L 676,492.38641 C 676,492.38641 656,487.38641 654,488.38641 C 652,489.38641 739,529.38641 739,529.38641 L 601,538.38641 L 727,600.38641 L 582,592.38641 L 715,716.38641 L 612,637.38641 L 533,618.38641 L 583,667.38641 L 534,645.38641 L 556,679.38641 L 529,659.38641 L 521,688.38641 L 506,651.38641 L 461,633.38641 L 457,534.38641 L 588,404.38641 z"
       id="path3366"
       style="opacity:1;fill:#ffffff;fill-opacity:1;fill-rule:evenodd;stroke:none;stroke-width:1px;stroke-linecap:butt;stroke-linejoin:miter;marker:none;marker-start:none;marker-mid:none;marker-end:none;stroke-miterlimit:4;stroke-dasharray:none;stroke-dashoffset:0;stroke-opacity:1;visibility:visible;display:inline;overflow:visible;enable-background:accumulate" />
    <path
       d="M 104.73518,106.4873 C 104.73518,106.4873 128.83354,109.26788 141.80958,116.68276 C 154.78562,124.09764 150.15132,118.53648 156.63934,121.31706 C 163.12736,124.09764 186.29887,141.70798 199.27491,150.04972 C 212.25095,158.39146 235.42245,166.7332 239.12989,169.51378 C 242.83733,172.29436 232.64187,158.39146 244.69105,163.02576 C 256.74023,167.66006 275.27743,173.22122 275.27743,173.22122 C 275.27743,173.22122 268.78941,157.4646 272.49685,160.24518 C 276.20429,163.02576 299.37579,170.44064 299.37579,170.44064 C 299.37579,170.44064 289.18033,152.8303 299.37579,160.24518 C 309.57125,167.66006 317.91299,168.58692 317.91299,168.58692 C 317.91299,168.58692 304.93695,153.75716 317.91299,160.24518 C 330.88903,166.7332 344.79193,169.51378 344.79193,169.51378 C 344.79193,169.51378 337.37705,152.8303 344.79193,156.53774 C 352.20681,160.24518 362.40227,169.51378 362.40227,169.51378 C 362.40227,169.51378 356.84111,145.41542 371.67087,155.61088 C 386.50063,165.80634 386.50063,166.7332 386.50063,166.7332 C 386.50063,166.7332 387.42749,129.6588 391.13493,129.6588 C 394.84237,129.6588 395.76923,146.34228 395.76923,146.34228 C 395.76923,146.34228 395.76923,111.1216 398.54981,109.26788 C 401.33039,107.41416 408.74527,117.60962 408.74527,117.60962 C 408.74527,117.60962 401.33039,93.511256 401.33039,87.950096 C 401.33039,82.388936 411.52585,90.730676 411.52585,90.730676 C 411.52585,90.730676 397.62295,63.851735 398.54981,59.217435 C 399.47667,54.583135 409.67213,61.071155 409.67213,61.071155 C 409.67213,61.071155 392.98865,32.338494 391.13493,28.631054 C 389.28121,24.923614 411.52585,36.045934 411.52585,36.045934 C 411.52585,36.045934 408.74527,21.216174 413.37957,20.289314 C 418.01387,19.362454 439.33165,28.631054 454.16141,78.681496 C 468.99117,128.73194 498.65069,190.83156 505.13871,199.1733 C 511.62673,207.51504 511.62673,207.51504 511.62673,207.51504 C 511.62673,207.51504 503.28499,184.34354 508.84615,190.83156 C 514.40731,197.31958 531.09079,234.39398 531.09079,234.39398 L 548.70113,261.27292 C 548.70113,261.27292 626.55738,260.34606 619.1425,325.22626 C 600.6053,318.73824 600.6053,322.44568 600.6053,322.44568 C 600.6053,322.44568 608.02018,330.78742 607.09332,342.8366 C 610.80076,343.76346 620.99622,346.54404 620.06936,347.4709 C 619.1425,348.39776 608.94704,353.95892 608.94704,353.95892 C 608.94704,353.95892 620.99622,352.1052 620.06936,357.66636 C 619.1425,363.22752 609.8739,361.3738 609.8739,361.3738 C 609.8739,361.3738 621.92308,365.08124 620.06936,368.78868 C 618.21564,372.49612 607.09332,373.42298 607.09332,373.42298 L 620.06936,381.76472 L 607.09332,384.5453 C 607.09332,384.5453 619.1425,390.10646 616.36192,393.8139 C 613.58134,397.52134 604.31274,397.52134 604.31274,397.52134 C 604.31274,397.52134 608.94704,405.86308 607.09332,409.57052 C 605.2396,413.27796 598.75158,408.64366 598.75158,408.64366 L 600.6053,421.6197 L 589.48298,424.40028 C 589.48298,424.40028 578.36066,440.15691 574.65322,442.93749 C 562.60404,475.37759 545.92055,492.98793 540.35939,491.13421 C 534.79823,489.28049 541.28625,479.08503 539.43253,468.88957 C 524.60277,482.79247 474.55233,556.01441 475.47919,587.52765 C 481.96721,611.62601 491.23581,569.91731 494.94325,571.77103 C 498.65069,573.62475 506.06557,606.06485 500.50441,624.60205 C 505.13871,637.57809 500.50441,683.92109 488.45523,692.26283 C 476.40605,700.60457 409.67213,701.53143 409.67213,701.53143 C 409.67213,701.53143 413.37957,716.36119 413.37957,722.84921 C 413.37957,729.33723 404.11097,733.04467 402.25725,726.55665 C 400.40353,720.06863 402.25725,744.16699 402.25725,744.16699 L -3.7074401,745.09385 L -1.8537201,434.59575 C -1.8537201,434.59575 27.805801,416.05854 31.513241,412.3511 C 35.220681,408.64366 18.537201,372.49612 23.171501,368.78868 C 27.805801,365.08124 47.269861,394.74076 54.684741,392.88704 C 62.099622,391.03332 51.904161,353.95892 55.611602,351.17834 C 59.319042,348.39776 79.709962,382.69158 79.709962,378.05728 C 79.709962,373.42298 72.295082,328.9337 75.075662,324.2994 C 77.856242,319.6651 92.686003,343.76346 92.686003,343.76346 C 92.686003,343.76346 81.563682,299.27418 85.271122,295.56674 C 88.978562,291.8593 101.9546,315.0308 101.9546,315.0308 C 101.9546,315.0308 98.247163,280.73698 101.02774,275.17582 C 103.80832,269.61466 110.29634,272.39524 110.29634,272.39524 L 101.02774,230.68654 C 101.02774,230.68654 101.02774,228.83282 108.44262,231.6134 C 106.5889,225.12538 89.905422,208.4419 90.832282,204.73446 C 91.759142,201.02702 100.10088,206.58818 100.10088,206.58818 C 100.10088,206.58818 82.490542,182.48982 82.490542,176.92866 C 82.490542,171.3675 91.759142,174.14808 91.759142,174.14808 C 91.759142,174.14808 74.148802,142.63484 75.075662,138.9274 C 76.002522,135.21996 86.197982,140.78112 86.197982,140.78112 C 86.197982,140.78112 71.368222,103.70672 75.075662,99.999276 C 78.783102,96.291836 105.66204,106.4873 104.73518,106.4873 z"
       id="path3316"
       style="opacity:1;fill:#000000;fill-opacity:1;fill-rule:evenodd;stroke:none;stroke-width:1px;stroke-linecap:butt;stroke-linejoin:miter;marker:none;marker-start:none;marker-mid:none;marker-end:none;stroke-miterlimit:4;stroke-dasharray:none;stroke-dashoffset:0;stroke-opacity:1;visibility:visible;display:inline;overflow:visible;enable-background:accumulate" />
    <path
       d="M 554.4631,405.0825 C 554.4631,405.0825 555.28092,458.84039 547.92055,481.08503 C 566.73037,454.20609 575.72636,420.83912 575.72636,415.27796 C 564.27691,405.0825 555.28092,405.0825 554.4631,405.0825 z"
       id="path3318"
       style="opacity:1;fill:#ffffff;fill-opacity:1;fill-rule:evenodd;stroke:none;stroke-width:1px;stroke-linecap:butt;stroke-linejoin:miter;marker:none;marker-start:none;marker-mid:none;marker-end:none;stroke-miterlimit:4;stroke-dasharray:none;stroke-dashoffset:0;stroke-opacity:1;visibility:visible;display:inline;overflow:visible;enable-background:accumulate" />
    <path
       d="M 447.67339,388.25274 C 447.67339,388.25274 443.96595,429.03459 436.55107,450.35237 C 457.86885,423.47342 468.99117,400.30192 471.77175,388.25274 C 463.43001,381.76472 457.86885,386.39902 457.86885,386.39902 C 457.86885,386.39902 456.01513,404.93622 453.23455,412.3511 C 452.30769,398.4482 454.16141,385.47216 454.16141,385.47216 L 447.67339,388.25274 z"
       id="path3320"
       style="opacity:1;fill:#ffffff;fill-opacity:1;fill-rule:evenodd;stroke:none;stroke-width:1px;stroke-linecap:butt;stroke-linejoin:miter;marker:none;marker-start:none;marker-mid:none;marker-end:none;stroke-miterlimit:4;stroke-dasharray:none;stroke-dashoffset:0;stroke-opacity:1;visibility:visible;display:inline;overflow:visible;enable-background:accumulate" />
    <path
       d="M 508.84615,320.59196 C 508.84615,320.59196 499.57755,289.07872 529.23707,269.61466 C 558.8966,250.1506 595.04414,272.39524 595.04414,272.39524 C 595.04414,272.39524 556.42514,257.05398 532.01765,273.3221 C 504.40317,291.72774 509.77301,320.59196 508.84615,320.59196 z"
       id="path3322"
       style="opacity:1;fill:#ffffff;fill-opacity:1;fill-rule:evenodd;stroke:none;stroke-width:1px;stroke-linecap:butt;stroke-linejoin:miter;marker:none;marker-start:none;marker-mid:none;marker-end:none;stroke-miterlimit:4;stroke-dasharray:none;stroke-dashoffset:0;stroke-opacity:1;visibility:visible;display:inline;overflow:visible;enable-background:accumulate" />
    <path
       d="M 516.26103,336.34858 C 556.11602,330.78742 577.4338,309.46964 566.31148,290.93244 C 555.18916,272.39524 519.96847,296.4936 542.21311,314.10394 C 526.45649,289.07872 558.31225,282.79885 562.60404,291.8593 C 570.94578,309.46964 557.96974,325.22626 516.26103,336.34858 z"
       id="path3324"
       style="opacity:1;fill:#ffffff;fill-opacity:1;fill-rule:evenodd;stroke:none;stroke-width:1px;stroke-linecap:butt;stroke-linejoin:miter;marker:none;marker-start:none;marker-mid:none;marker-end:none;stroke-miterlimit:4;stroke-dasharray:none;stroke-dashoffset:0;stroke-opacity:1;visibility:visible;display:inline;overflow:visible;enable-background:accumulate" />
    <path
       d="M 614.5082,303.90848 C 603.38588,284.44442 584.84868,294.63988 592.26356,320.59196 C 599.67844,346.54404 607.09332,342.8366 607.09332,342.8366 C 607.09332,342.8366 596.89786,336.34858 594.11728,319.6651 C 591.3367,302.98162 598.75158,288.15186 614.5082,303.90848 z"
       id="path3326"
       style="opacity:1;fill:#ffffff;fill-opacity:1;fill-rule:evenodd;stroke:none;stroke-width:1px;stroke-linecap:butt;stroke-linejoin:miter;marker:none;marker-start:none;marker-mid:none;marker-end:none;stroke-miterlimit:4;stroke-dasharray:none;stroke-dashoffset:0;stroke-opacity:1;visibility:visible;display:inline;overflow:visible;enable-background:accumulate" />
    <path
       d="M 476.40605,386.39902 C 476.40605,386.39902 491.23581,371.56926 500.50441,384.5453 C 495.87011,401.22878 477.33291,408.64366 477.33291,408.64366 L 476.40605,386.39902 z"
       id="path3328"
       style="opacity:1;fill:#ffffff;fill-opacity:1;fill-rule:evenodd;stroke:none;stroke-width:1px;stroke-linecap:butt;stroke-linejoin:miter;marker:none;marker-start:none;marker-mid:none;marker-end:none;stroke-miterlimit:4;stroke-dasharray:none;stroke-dashoffset:0;stroke-opacity:1;visibility:visible;display:inline;overflow:visible;enable-background:accumulate" />
    <path
       d="M 503.13871,385.47216 C 503.13871,385.47216 517.04161,376.20356 520.74905,389.1796 C 524.45649,402.15564 504.99243,410.49738 504.99243,410.49738 L 503.13871,385.47216 z"
       id="path3330"
       style="opacity:1;fill:#ffffff;fill-opacity:1;fill-rule:evenodd;stroke:none;stroke-width:1px;stroke-linecap:butt;stroke-linejoin:miter;marker:none;marker-start:none;marker-mid:none;marker-end:none;stroke-miterlimit:4;stroke-dasharray:none;stroke-dashoffset:0;stroke-opacity:1;visibility:visible;display:inline;overflow:visible;enable-background:accumulate" />
    <path
       d="M 529.23707,391.96018 C 529.23707,391.96018 535.72509,390.10646 536.65195,395.66762 C 537.57881,401.22878 530.16393,418.83912 525.52963,421.6197 C 520.89533,424.40028 532.94451,402.15564 529.23707,391.96018 z"
       id="path3334"
       style="opacity:1;fill:#ffffff;fill-opacity:1;fill-rule:evenodd;stroke:none;stroke-width:1px;stroke-linecap:butt;stroke-linejoin:miter;marker:none;marker-start:none;marker-mid:none;marker-end:none;stroke-miterlimit:4;stroke-dasharray:none;stroke-dashoffset:0;stroke-opacity:1;visibility:visible;display:inline;overflow:visible;enable-background:accumulate" />
    <path
       d="M 544.99369,401.22878 L 549.62799,404.93622 C 549.62799,404.93622 546.84741,417.91226 542.21311,422.54656 C 544.06683,415.13168 544.99369,403.0825 544.99369,401.22878 z"
       id="path3336"
       style="opacity:1;fill:#ffffff;fill-opacity:1;fill-rule:evenodd;stroke:none;stroke-width:1px;stroke-linecap:butt;stroke-linejoin:miter;marker:none;marker-start:none;marker-mid:none;marker-end:none;stroke-miterlimit:4;stroke-dasharray:none;stroke-dashoffset:0;stroke-opacity:1;visibility:visible;display:inline;overflow:visible;enable-background:accumulate" />
    <path
       d="M 404.11097,589.38137 C 404.11097,589.38137 402.25725,627.38263 411.52585,644.99297 C 419.86759,640.35867 430.98991,664.45703 437.47793,664.45703 C 443.96595,664.45703 437.47793,654.26157 442.11223,653.33471 C 446.74653,652.40785 449.52711,670.01819 455.08827,668.16447 C 460.64943,666.31075 461.57629,653.33471 465.28373,653.33471 C 468.99117,653.33471 466.21059,668.16447 471.77175,668.16447 C 477.33291,668.16447 473.62547,655.18843 475.47919,655.18843 C 477.33291,655.18843 481.96721,663.53017 484.74779,662.60331 C 487.52837,661.67645 501.43127,627.38263 495.87011,585.67393 C 485.67465,604.21113 473.62547,632.94379 473.62547,632.94379 L 474.55233,648.70041 L 468.06431,627.38263 C 468.06431,627.38263 467.13745,645.91983 463.43001,645.91983 C 459.72257,645.91983 449.52711,627.38263 449.52711,627.38263 C 449.52711,627.38263 447.67339,648.70041 443.03909,648.70041 C 438.40479,648.70041 431.91677,636.65123 430.98991,631.09007 C 428.20933,632.94379 426.35561,633.87065 426.35561,633.87065 C 426.35561,633.87065 410.59899,614.40659 404.11097,589.38137 z"
       id="path3340"
       style="opacity:1;fill:#ffffff;fill-opacity:1;fill-rule:evenodd;stroke:none;stroke-width:1px;stroke-linecap:butt;stroke-linejoin:miter;marker:none;marker-start:none;marker-mid:none;marker-end:none;stroke-miterlimit:4;stroke-dasharray:none;stroke-dashoffset:0;stroke-opacity:1;visibility:visible;display:inline;overflow:visible;enable-background:accumulate" />
    <path
       d="M 332.74275,266.83408 C 332.74275,266.83408 331.81589,245.5163 355.91425,241.80886 C 380.01261,238.10142 385.57377,263.12664 385.57377,263.12664 C 385.57377,263.12664 380.93947,264.0535 377.23203,263.12664 C 373.52459,262.19978 368.89029,257.56548 368.89029,257.56548 C 368.89029,257.56548 364.25599,267.76094 361.47541,267.76094 C 358.69483,267.76094 367.03657,257.56548 363.32913,254.7849 C 359.62169,252.00432 342.93821,249.22374 332.74275,266.83408 z"
       id="path3342"
       style="opacity:1;fill:#ffffff;fill-opacity:1;fill-rule:evenodd;stroke:none;stroke-width:1px;stroke-linecap:butt;stroke-linejoin:miter;marker:none;marker-start:none;marker-mid:none;marker-end:none;stroke-miterlimit:4;stroke-dasharray:none;stroke-dashoffset:0;stroke-opacity:1;visibility:visible;display:inline;overflow:visible;enable-background:accumulate" />
    <path
       d="M 442.2363,606.61068 C 442.2363,606.61068 432.44291,567.43711 424.98128,552.9802 C 419.85141,545.51857 420.78411,553.9129 418.9187,554.84561 C 417.0533,555.77831 411.92342,552.04749 410.05802,552.04749 C 408.19261,552.04749 410.05802,558.11007 407.2599,558.11007 C 404.46179,558.11007 398.39922,547.38397 395.6011,547.85033 C 392.80299,548.31668 405.86085,573.49969 403.06274,573.96604 C 400.26462,574.43239 381.61054,536.19153 374.14891,539.92234 C 366.68728,543.65316 402.59638,588.42295 406.3272,586.55754 C 410.05802,584.69214 403.99544,578.62956 405.86085,577.69686 C 407.72626,576.76415 414.72154,600.08175 417.986,598.21634 C 421.25046,596.35094 416.58694,589.35566 420.78411,588.42295 C 424.98128,587.49025 424.04858,600.08175 427.77939,599.6154 C 431.51021,599.14905 429.6448,594.01918 431.51021,593.08647 C 433.37562,592.15377 435.70738,607.07703 438.50549,608.47609 C 441.3036,609.87514 443.16901,608.00974 442.2363,606.61068 z"
       id="path3344"
       style="opacity:1;fill:#ffffff;fill-opacity:1;fill-rule:evenodd;stroke:none;stroke-width:1px;stroke-linecap:butt;stroke-linejoin:miter;marker:none;marker-start:none;marker-mid:none;marker-end:none;stroke-miterlimit:4;stroke-dasharray:none;stroke-dashoffset:0;stroke-opacity:1;visibility:visible;display:inline;overflow:visible;enable-background:accumulate" />
    <path
       d="M 466.35202,511.47487 C 463.08755,511.94122 452.36146,534.32612 453.76051,537.12423 C 455.15957,539.92234 467.75107,550.18209 469.61648,544.58586 C 471.48189,538.98964 470.08283,512.87392 466.35202,511.47487 z"
       id="path3346"
       style="opacity:1;fill:#ffffff;fill-opacity:1;fill-rule:evenodd;stroke:none;stroke-width:1px;stroke-linecap:butt;stroke-linejoin:miter;marker:none;marker-start:none;marker-mid:none;marker-end:none;stroke-miterlimit:4;stroke-dasharray:none;stroke-dashoffset:0;stroke-opacity:1;visibility:visible;display:inline;overflow:visible;enable-background:accumulate" />
    <path
       d="M 476.14541,548.31668 C 473.81365,548.31668 464.95296,566.50441 465.41931,568.36981 C 465.88567,570.23522 471.94824,568.83617 471.94824,570.70158 C 471.94824,572.56698 466.35202,580.96132 466.81837,583.75943 C 467.28472,586.55754 468.68378,584.22578 470.08283,586.55754 C 471.48189,588.8893 467.28472,599.6154 467.28472,601.94716 C 467.28472,604.27892 471.94824,607.54338 474.28,606.61068 C 476.61176,605.67798 475.21271,587.49025 475.21271,584.69214 C 475.21271,581.89402 472.41459,585.62484 472.41459,585.62484 C 472.41459,585.62484 477.54447,570.23522 476.61176,567.90346 C 475.67906,565.5717 472.88095,569.30252 472.88095,569.30252 C 472.88095,569.30252 476.61176,552.9802 476.14541,548.31668 z"
       id="path3348"
       style="opacity:1;fill:#ffffff;fill-opacity:1;fill-rule:evenodd;stroke:none;stroke-width:1px;stroke-linecap:butt;stroke-linejoin:miter;marker:none;marker-start:none;marker-mid:none;marker-end:none;stroke-miterlimit:4;stroke-dasharray:none;stroke-dashoffset:0;stroke-opacity:1;visibility:visible;display:inline;overflow:visible;enable-background:accumulate" />
    <path
       d="M 338.10521,490.02268 C 338.10521,490.02268 332.50899,514.27298 332.04264,526.86449 C 340.43697,524.53273 347.43225,526.86449 347.43225,526.86449 C 347.43225,526.86449 345.56685,539.45599 345.56685,545.98492 C 353.49483,551.58114 357.692,552.9802 358.15835,549.71573 C 358.6247,546.45127 349.29766,520.33556 349.29766,520.33556 L 347.89861,524.99908 C 347.89861,524.99908 344.16779,504.01324 338.10521,490.02268 z"
       id="path3350"
       style="opacity:1;fill:#ffffff;fill-opacity:1;fill-rule:evenodd;stroke:none;stroke-width:1px;stroke-linecap:butt;stroke-linejoin:miter;marker:none;marker-start:none;marker-mid:none;marker-end:none;stroke-miterlimit:4;stroke-dasharray:none;stroke-dashoffset:0;stroke-opacity:1;visibility:visible;display:inline;overflow:visible;enable-background:accumulate" />
    <path
       d="M 367.95174,553.9129 C 367.95174,553.9129 376.34608,562.30724 376.34608,569.76887 C 368.41809,570.23522 367.01904,571.16793 367.01904,571.16793 L 367.95174,553.9129 z"
       id="path3352"
       style="opacity:1;fill:#ffffff;fill-opacity:1;fill-rule:evenodd;stroke:none;stroke-width:1px;stroke-linecap:butt;stroke-linejoin:miter;marker:none;marker-start:none;marker-mid:none;marker-end:none;stroke-miterlimit:4;stroke-dasharray:none;stroke-dashoffset:0;stroke-opacity:1;visibility:visible;display:inline;overflow:visible;enable-background:accumulate" />
    <path
       d="M 388.93758,573.96604 L 387.53853,587.49025 L 395.46651,587.49025 C 395.46651,587.49025 395.00016,579.09591 388.93758,573.96604 z"
       id="path3354"
       style="opacity:1;fill:#ffffff;fill-opacity:1;fill-rule:evenodd;stroke:none;stroke-width:1px;stroke-linecap:butt;stroke-linejoin:miter;marker:none;marker-start:none;marker-mid:none;marker-end:none;stroke-miterlimit:4;stroke-dasharray:none;stroke-dashoffset:0;stroke-opacity:1;visibility:visible;display:inline;overflow:visible;enable-background:accumulate" />
    <path
       d="M 367.01904,188.29292 C 369.81715,187.36022 361.88917,177.10047 366.08633,175.23506 C 370.2835,173.36966 378.67784,186.89386 383.34136,185.49481 C 388.00488,184.09575 383.34136,181.29764 387.07217,179.43223 C 390.80299,177.56682 401.99544,194.3555 405.72626,193.88914 C 409.45707,193.42279 404.79355,187.82657 408.52437,186.42751 C 412.25518,185.02846 455.62592,239.12529 451.42875,240.9907 C 447.23159,242.85611 445.83253,235.86083 443.03442,237.25988 C 440.2363,238.65894 467.75107,265.70736 463.55391,268.03912 C 459.35674,270.37088 452.82781,256.84667 450.0297,257.77937 C 447.23159,258.71208 455.15957,275.9671 450.9624,278.29886 C 446.76523,280.63062 442.56806,266.64006 440.2363,268.50547 C 437.90454,270.37088 447.23159,282.02968 443.50077,283.42873 C 439.76995,284.82779 434.17373,275.50075 431.37562,276.8998 C 428.5775,278.29886 434.64008,286.6932 431.37562,288.5586 C 428.11115,290.42401 428.5775,282.02968 424.84669,283.89508 C 421.11587,285.76049 427.6448,294.62118 424.84669,296.02024 C 422.04858,297.41929 416.9187,289.02496 415.0533,290.89036 C 413.18789,292.75577 418.31776,296.48659 415.51965,297.88564 C 412.72154,299.2847 402.92814,290.89036 405.72626,289.02496 C 408.52437,287.15955 408.99072,290.89036 411.78883,289.02496 C 414.58694,287.15955 408.05802,282.02968 410.85613,278.76521 C 413.65424,275.50075 417.85141,282.49603 420.64952,281.56332 C 423.44763,280.63062 413.65424,271.76993 416.9187,268.50547 C 420.18317,265.241 425.31304,273.63534 427.6448,272.23628 C 429.97656,270.83723 394.06745,233.52907 397.33192,230.73095 C 400.59638,227.93284 403.3945,235.39447 406.65896,233.06271 C 409.92342,230.73095 381.0096,196.2209 376.81243,199.95172 C 372.61526,203.68254 382.40865,208.81241 377.74513,209.74511 C 373.08161,210.67782 369.81715,196.68726 365.15363,198.55266 C 360.49011,200.41807 372.14891,209.27876 367.01904,210.67782 C 361.88917,212.07687 355.36024,201.81713 353.02848,203.68254 C 350.69672,205.54795 361.88917,216.27404 357.692,219.07215 C 353.49483,221.87027 351.16307,211.14417 348.36496,212.07687 C 345.56685,213.00958 354.42753,224.20203 352.09577,224.66838 C 349.76401,225.13473 342.76873,218.13945 340.90332,219.53851 C 339.03792,220.93756 340.43697,228.86555 337.63886,229.79825 C 334.84075,230.73095 334.3744,226.53379 330.64358,227.93284 C 326.91276,229.3319 329.24452,232.59636 326.91276,233.99542 C 324.581,235.39447 318.51843,231.66366 318.51843,231.66366 C 318.51843,231.66366 318.51843,236.79353 315.25396,239.12529 C 311.9895,241.45705 310.12409,237.25988 306.39328,239.59164 C 302.66246,241.9234 310.12409,243.78881 305.92692,245.65422 C 301.72976,247.51963 289.6046,262.90924 286.80649,261.04384 C 284.00838,259.17843 296.13353,246.12057 296.13353,243.78881 C 296.13353,241.45705 291.93636,231.66366 294.73448,230.2646 C 297.53259,228.86555 300.3307,236.32718 303.12881,234.92812 C 305.92692,233.52907 301.2634,222.33662 304.52787,219.07215 C 307.79233,215.80769 311.0568,228.39919 314.32126,227.00014 C 317.58572,225.60108 312.45585,215.34134 316.18667,213.00958 C 319.91748,210.67782 323.6483,227.00014 326.91276,224.66838 C 330.17723,222.33662 320.85019,203.21619 325.04736,202.28348 C 329.24452,201.35078 330.17723,216.74039 334.84075,214.40863 C 339.50427,212.07687 323.6483,187.36022 326.91276,185.02846 C 330.17723,182.6967 333.44169,190.15833 336.2398,189.22562 C 339.03792,188.29292 330.64358,177.56682 333.44169,175.70142 C 336.2398,173.83601 345.56685,193.42279 349.29766,191.09103 C 353.02848,188.75927 341.83603,175.23506 346.9659,172.43695 C 352.09577,169.63884 361.42281,190.62468 367.01904,188.29292 z"
       id="path3356"
       style="opacity:1;fill:#ffffff;fill-opacity:1;fill-rule:evenodd;stroke:none;stroke-width:1px;stroke-linecap:butt;stroke-linejoin:miter;marker:none;marker-start:none;marker-mid:none;marker-end:none;stroke-miterlimit:4;stroke-dasharray:none;stroke-dashoffset:0;stroke-opacity:1;visibility:visible;display:inline;overflow:visible;enable-background:accumulate" />
    <path
       d="M 513.45357,205.54795 C 515.78533,204.61524 529.30954,231.19731 525.11237,232.59636 C 520.9152,233.99542 518.58344,224.20203 515.78533,225.60108 C 512.98722,227.00014 523.71332,238.19259 519.9825,240.05799 C 516.25168,241.9234 514.85263,233.99542 512.05452,236.32718 C 509.2564,238.65894 519.0498,252.18315 515.78533,255.44761 C 512.52087,258.71208 509.72276,249.38503 507.391,251.25044 C 505.05924,253.11585 510.18911,257.77937 506.45829,259.64478 C 502.72748,261.51019 504.12653,251.25044 496.6649,254.04856 C 489.20327,256.84667 498.06395,263.84195 493.86679,265.70736 C 489.66962,267.57276 481.74163,245.18787 478.47717,247.51963 C 475.21271,249.85139 481.74163,258.24572 479.40987,259.64478 C 477.07811,261.04384 428.11115,195.75455 431.84197,193.88914 C 435.57278,192.02374 438.3709,202.28348 442.56806,200.88443 C 446.76523,199.48537 428.5775,178.03318 433.24102,176.16777 C 437.90454,174.30236 445.83253,191.55738 450.0297,190.15833 C 454.22687,188.75927 450.49605,180.83129 453.76051,179.89858 C 457.02498,178.96588 460.28944,194.3555 465.88567,193.88914 C 471.48189,193.42279 463.55391,189.69198 467.75107,188.29292 C 471.94824,186.89386 483.60704,217.6731 488.73691,216.27404 C 493.86679,214.87499 476.61176,197.61996 481.27528,196.68726 C 485.9388,195.75455 492.00138,210.21147 494.79949,208.81241 C 497.5976,207.41335 492.00138,199.48537 493.86679,199.01902 C 495.73219,198.55266 502.26112,209.74511 504.12653,209.74511 C 505.99194,209.74511 499.92936,201.35078 502.26112,200.41807 C 504.59288,199.48537 508.3237,210.67782 510.65546,209.74511 C 512.98722,208.81241 510.18911,205.54795 513.45357,205.54795 z"
       id="path3358"
       style="opacity:1;fill:#ffffff;fill-opacity:1;fill-rule:evenodd;stroke:none;stroke-width:1px;stroke-linecap:butt;stroke-linejoin:miter;marker:none;marker-start:none;marker-mid:none;marker-end:none;stroke-miterlimit:4;stroke-dasharray:none;stroke-dashoffset:0;stroke-opacity:1;visibility:visible;display:inline;overflow:visible;enable-background:accumulate" />
    <path
       d="M 522.17967,261.64478 C 522.17967,261.64478 523.11237,251.38503 528.7086,249.51963 C 534.30482,247.65422 534.30482,249.98598 534.77117,251.85139 C 532.43941,255.11585 530.10765,254.18315 530.10765,254.18315 L 531.50671,258.38032 L 528.24224,255.11585 C 528.24224,255.11585 524.51143,256.51491 522.17967,261.64478 z"
       id="path3360"
       style="opacity:1;fill:#ffffff;fill-opacity:1;fill-rule:evenodd;stroke:none;stroke-width:1px;stroke-linecap:butt;stroke-linejoin:miter;marker:none;marker-start:none;marker-mid:none;marker-end:none;stroke-miterlimit:4;stroke-dasharray:none;stroke-dashoffset:0;stroke-opacity:1;visibility:visible;display:inline;overflow:visible;enable-background:accumulate" />
    <path
       d="M 90.472291,107.61402 C 90.472291,107.61402 118.45341,140.72501 122.65058,139.79231 C 126.84775,138.85961 121.25152,127.66716 123.58328,126.73445 C 125.91504,125.80175 149.699,157.51369 153.89617,157.98004 C 158.09333,158.44639 148.29994,148.653 151.09805,143.98948 C 153.89617,139.32596 190.73798,187.36022 194.00244,184.09575 C 197.2669,180.83129 191.20433,171.0379 194.00244,170.10519 C 196.80055,169.17249 230.3779,204.14889 233.64236,201.35078 C 236.90683,198.55266 234.10871,190.15833 236.44047,188.75927 C 238.77223,187.36022 253.6955,208.34606 257.42631,205.08159 C 261.15713,201.81713 254.16185,195.2882 258.35902,192.49009 C 262.55619,189.69198 263.02254,198.55266 266.75335,196.2209 C 270.48417,193.88914 257.89267,171.9706 251.83009,174.30236 C 245.76751,176.63412 254.16185,180.83129 250.89739,182.6967 C 247.63292,184.5621 229.91154,174.30236 209.39206,160.77815 C 188.87257,147.25394 166.48767,128.59986 159.02604,126.2681 C 151.56441,123.93634 142.70372,123.46999 124.98234,116.47471 C 107.26096,109.47943 90.005939,102.48415 89.539587,105.28226 C 89.073235,108.08037 91.871347,108.54673 90.472291,107.61402 z"
       id="path3362"
       style="opacity:1;fill:#ffffff;fill-opacity:1;fill-rule:evenodd;stroke:none;stroke-width:1px;stroke-linecap:butt;stroke-linejoin:miter;marker:none;marker-start:none;marker-mid:none;marker-end:none;stroke-miterlimit:4;stroke-dasharray:none;stroke-dashoffset:0;stroke-opacity:1;visibility:visible;display:inline;overflow:visible;enable-background:accumulate" />
    <path
       d="M 248.5,465.38641 C 248.5,465.38641 214.5,470.88641 203.5,477.88641 C 196.5,483.38641 195,484.38641 196,487.38641 C 197,490.38641 233.5,505.88641 233.5,505.88641 C 233.5,505.88641 247.5,700.88641 362,653.88641 C 388,685.88641 432.5,697.38641 447.5,697.88641 C 462.5,698.38641 469.5,696.88641 469.5,696.88641 L 490,752.38641 L 396.5,745.88641 C 396.5,745.88641 370.5,740.88641 342.5,675.38641 C 321.5,675.38641 321,676.88641 299.5,669.38641 C 294.5,676.38641 291.5,688.88641 289.5,689.38641 C 287.5,689.88641 284.5,662.88641 280.5,658.88641 C 276.5,654.88641 266,679.88641 260.5,677.38641 C 255,674.88641 262.5,621.38641 262.5,621.38641 C 262.5,621.38641 250,644.88641 231,650.38641 C 227,637.38641 243.5,606.88641 243.5,592.38641 C 224,600.88641 196.5,604.88641 196.5,604.88641 C 196.5,604.88641 228,583.38641 232,563.38641 C 229.5,552.38641 197,574.38641 177.5,574.88641 C 186,552.88641 216.5,524.88641 216.5,524.88641 C 216.5,524.88641 182,533.38641 154,525.38641 C 156.5,511.88641 179,505.38641 185.5,497.88641 C 192,490.38641 178.5,472.38641 172,466.38641 C 165.5,460.38641 154,467.38641 149.5,458.88641 C 145,450.38641 169,458.88641 166,451.88641 C 163,444.88641 143.5,430.88641 142.5,424.38641 C 141.5,417.88641 172.5,432.38641 174.5,425.88641 C 176.5,419.38641 154.5,406.88641 153.5,396.88641 C 152.5,386.88641 175.5,403.88641 181.5,394.88641 C 187.5,385.88641 162,366.88641 164.5,362.38641 C 167,357.88641 193.5,380.38641 200,371.88641 C 206.5,363.38641 181.5,345.38641 183.5,342.38641 C 185.5,339.38641 217,355.38641 224.5,348.88641 C 232,342.38641 212.5,327.38641 218,324.38641 C 223.5,321.38641 246.5,336.38641 252.5,332.88641 C 258.5,329.38641 252.5,318.38641 256,316.88641 C 259.5,315.38641 267,326.38641 271,324.88641 C 275,323.38641 271,311.88641 276,310.38641 C 281,308.88641 291,326.38641 294.5,324.38641 C 298,322.38641 293,311.88641 299,309.38641 C 305,306.88641 308.5,323.88641 313.5,321.38641 C 318.5,318.88641 311.5,309.88641 320,308.38641 C 328.5,306.88641 332,324.88641 335.5,322.38641 C 339,319.88641 337,310.88641 342,308.88641 C 347,306.88641 346.5,318.88641 349.5,316.38641 C 352.5,313.88641 351.5,305.88641 355,303.88641 C 358.5,301.88641 363,314.38641 366,313.38641 C 369,312.38641 365,304.88641 368,303.38641 C 371,301.88641 373.5,312.38641 377.5,310.38641 C 381.5,308.38641 375.5,301.88641 377.5,301.38641 C 379.5,300.88641 392.5,315.88641 389,317.88641 C 385.5,319.88641 382,311.38641 380,313.38641 C 378,315.38641 386,324.88641 382.5,325.88641 C 379,326.88641 371,317.38641 369.5,318.88641 C 368,320.38641 375,336.88641 371.5,336.38641 C 368,335.88641 362,331.38641 357.5,333.88641 C 353,336.38641 359,345.88641 355,347.38641 C 351,348.88641 340.5,345.38641 338,347.38641 C 335.5,349.38641 338.5,358.38641 335,358.88641 C 331.5,359.38641 326.5,354.38641 323,355.88641 C 319.5,357.38641 326.5,361.88641 322.5,364.38641 C 318.5,366.88641 313,361.88641 308.5,364.38641 C 304,366.88641 310,374.88641 306,375.38641 C 302,375.88641 294,376.38641 291.5,378.38641 C 289,380.38641 300,386.38641 293.5,388.38641 C 287,390.38641 279,387.88641 274,392.38641 C 269,396.88641 281,395.88641 275.5,400.88641 C 270,405.88641 267.5,395.88641 259,404.88641 C 250.5,413.88641 265,418.38641 261,423.88641 C 257,429.38641 242,428.38641 236,432.38641 C 230,436.38641 257.5,442.38641 254.5,446.88641 C 251.5,451.38641 255.5,464.38641 248.5,465.38641 z"
       id="path3364"
       style="opacity:1;fill:#ffffff;fill-opacity:1;fill-rule:evenodd;stroke:none;stroke-width:1px;stroke-linecap:butt;stroke-linejoin:miter;marker:none;marker-start:none;marker-mid:none;marker-end:none;stroke-miterlimit:4;stroke-dasharray:none;stroke-dashoffset:0;stroke-opacity:1;visibility:visible;display:inline;overflow:visible;enable-background:accumulate" />
    <path
       d="M 639,513.88641 C 639,513.88641 561,520.88641 558,523.38641 C 555,525.88641 626.5,572.88641 628.5,569.38641 C 630.5,565.88641 568.5,530.38641 569,525.88641 C 569.5,521.38641 643,519.38641 639,513.88641 z"
       id="path3370"
       style="opacity:1;fill:#000000;fill-opacity:1;fill-rule:evenodd;stroke:none;stroke-width:1px;stroke-linecap:butt;stroke-linejoin:miter;marker:none;marker-start:none;marker-mid:none;marker-end:none;stroke-miterlimit:4;stroke-dasharray:none;stroke-dashoffset:0;stroke-opacity:1;visibility:visible;display:inline;overflow:visible;enable-background:accumulate" />
    <path
       d="M 611.5,474.38641 C 609,476.38641 676,514.88641 679.5,512.38641 C 683,509.88641 612.5,470.88641 611.5,474.38641 z"
       id="path3372"
       style="opacity:1;fill:#000000;fill-opacity:1;fill-rule:evenodd;stroke:none;stroke-width:1px;stroke-linecap:butt;stroke-linejoin:miter;marker:none;marker-start:none;marker-mid:none;marker-end:none;stroke-miterlimit:4;stroke-dasharray:none;stroke-dashoffset:0;stroke-opacity:1;visibility:visible;display:inline;overflow:visible;enable-background:accumulate" />
    <path
       d="M 532,606.88641 C 530,610.38641 585.5,628.88641 587,625.88641 C 588.5,622.88641 533,602.38641 532,606.88641 z"
       id="path3374"
       style="opacity:1;fill:#000000;fill-opacity:1;fill-rule:evenodd;stroke:none;stroke-width:1px;stroke-linecap:butt;stroke-linejoin:miter;marker:none;marker-start:none;marker-mid:none;marker-end:none;stroke-miterlimit:4;stroke-dasharray:none;stroke-dashoffset:0;stroke-opacity:1;visibility:visible;display:inline;overflow:visible;enable-background:accumulate" />
  </g>
</svg>
